<mxfile host="app.diagrams.net" modified="2024-08-15T06:03:47.217Z" agent="Mozilla/5.0 (Windows NT 10.0; Win64; x64) AppleWebKit/537.36 (KHTML, like Gecko) Chrome/127.0.0.0 Safari/537.36 Edg/127.0.0.0" version="23.1.1" etag="tY9FAKrkPVyqbddaS3Zn" type="github">
  <diagram name="Page-1" id="YaTuOZGCI6v1T0UDwyXR">
    <mxGraphModel>
      <root>
        <mxCell id="0" />
        <mxCell id="1" parent="0" />
      </root>
    </mxGraphModel>
  </diagram>
</mxfile>
